<?xml version="1.0" encoding="utf-8"?>
<!-- Generator: Adobe Illustrator 26.0.2, SVG Export Plug-In . SVG Version: 6.00 Build 0)  -->
<svg version="1.1"
	 id="图层_1" xmlns:anim="urn:oasis:names:tc:opendocument:xmlns:animation:1.0" xmlns:ooo="http://xml.openoffice.org/svg/export" xmlns:presentation="http://sun.com/xmlns/staroffice/presentation" xmlns:smil="http://www.w3.org/2001/SMIL20/"
	 xmlns="http://www.w3.org/2000/svg" xmlns:xlink="http://www.w3.org/1999/xlink" x="0px" y="0px" viewBox="0 0 785 326"
	 style="enable-background:new 0 0 785 326;" xml:space="preserve">
<style type="text/css">
	.st0{clip-path:url(#SVGID_00000176012051477850609970000018180682371717954690_);}
	.st1{fill:none;}
	
		.st2{fill-rule:evenodd;clip-rule:evenodd;fill:#E16173;fill-opacity:0.231;stroke:#FFFFFF;stroke-width:0.8;stroke-linejoin:round;stroke-miterlimit:10;stroke-opacity:0.231;}
	.st3{fill:none;stroke:#E16173;stroke-width:1.5024;stroke-linejoin:round;stroke-miterlimit:10;}
	
		.st4{fill-rule:evenodd;clip-rule:evenodd;fill:#77BC65;fill-opacity:0.231;stroke:#FFFFFF;stroke-width:0.8;stroke-linejoin:round;stroke-miterlimit:10;stroke-opacity:0.231;}
	.st5{fill:none;stroke:#AFD095;stroke-width:1.5024;stroke-linejoin:round;stroke-miterlimit:10;}
	
		.st6{fill-rule:evenodd;clip-rule:evenodd;fill:#729FCF;fill-opacity:0.231;stroke:#FFFFFF;stroke-width:0.8;stroke-linejoin:round;stroke-miterlimit:10;stroke-opacity:0.231;}
	.st7{fill:none;stroke:#729FCF;stroke-width:1.5024;stroke-linejoin:round;stroke-miterlimit:10;}
	
		.st8{fill-rule:evenodd;clip-rule:evenodd;fill:#FFFFFF;fill-opacity:0.502;stroke:#FFFFFF;stroke-width:0.8;stroke-linejoin:round;stroke-miterlimit:10;stroke-opacity:0.502;}
	.st9{fill:none;stroke:#00A933;stroke-width:1.5024;stroke-linejoin:round;stroke-miterlimit:10;}
	.st10{font-family:'ArialMT';}
	.st11{font-size:14.0031px;}
	.st12{fill:none;stroke:#2A6099;stroke-width:1.5024;stroke-linejoin:round;stroke-miterlimit:10;}
	.st13{fill:none;stroke:#FF8000;stroke-width:1.5024;stroke-linejoin:round;stroke-miterlimit:10;}
	.st14{font-size:11.9906px;}
	
		.st15{fill-rule:evenodd;clip-rule:evenodd;fill:#FF972F;fill-opacity:0.231;stroke:#FFFFFF;stroke-width:0.8;stroke-linejoin:round;stroke-miterlimit:10;stroke-opacity:0.231;}
	.st16{fill:none;stroke:#FF972F;stroke-width:1.5024;stroke-linejoin:round;stroke-miterlimit:10;}
	.st17{fill-rule:evenodd;clip-rule:evenodd;fill:#CCCCCC;}
	.st18{fill:none;stroke:#666666;stroke-width:1.5024;stroke-linejoin:round;stroke-miterlimit:10;}
	.st19{fill:none;stroke:#808080;stroke-width:1.5024;stroke-linejoin:round;stroke-miterlimit:10;}
	.st20{fill-rule:evenodd;clip-rule:evenodd;fill:#808080;}
	.st21{fill-rule:evenodd;clip-rule:evenodd;fill:#E16173;}
	.st22{fill-rule:evenodd;clip-rule:evenodd;fill:#FF972F;}
</style>
<g>
	<g id="id2">
		<g id="bg-id2">
		</g>
		<g id="bo-id2">
		</g>
	</g>
</g>
<g>
	<g>
		<g id="container-id1">
			<g>
				<defs>
					<rect id="SVGID_1_" x="-17" y="-165.9" width="841.9" height="595.3"/>
				</defs>
				<clipPath id="SVGID_00000022526861203109560700000006555561921246073014_">
					<use xlink:href="#SVGID_1_"  style="overflow:visible;"/>
				</clipPath>
				<g id="id1" style="clip-path:url(#SVGID_00000022526861203109560700000006555561921246073014_);">
					<g>
						<g>
							<g id="id3">
								<rect x="584.6" y="10.5" class="st1" width="143.3" height="122.1"/>
								<path class="st2" d="M605.4,11.3L605.4,11.3c-3.5,0-7,0.9-10,2.7c-3,1.8-5.6,4.3-7.3,7.3c-1.8,3.1-2.7,6.5-2.7,10.1v80.3v0
									c0,3.5,0.9,7,2.7,10c1.8,3,4.3,5.6,7.3,7.3c3.1,1.8,6.5,2.7,10,2.7H707h0c3.5,0,7-0.9,10-2.7c3-1.8,5.6-4.3,7.3-7.3
									c1.8-3.1,2.7-6.5,2.7-10V31.3v0l0,0c0-3.5-0.9-7-2.7-10.1c-1.8-3-4.3-5.6-7.3-7.3c-3.1-1.8-6.5-2.7-10-2.7H605.4z"/>
								<path class="st3" d="M605.4,11.3L605.4,11.3c-3.5,0-7,0.9-10,2.7c-3,1.8-5.6,4.3-7.3,7.3c-1.8,3.1-2.7,6.5-2.7,10.1v80.3v0
									c0,3.5,0.9,7,2.7,10c1.8,3,4.3,5.6,7.3,7.3c3.1,1.8,6.5,2.7,10,2.7H707h0c3.5,0,7-0.9,10-2.7c3-1.8,5.6-4.3,7.3-7.3
									c1.8-3.1,2.7-6.5,2.7-10V31.3v0l0,0c0-3.5-0.9-7-2.7-10.1c-1.8-3-4.3-5.6-7.3-7.3c-3.1-1.8-6.5-2.7-10-2.7H605.4z"/>
							</g>
						</g>
						<g>
							<g id="id4">
								<rect x="10.1" y="58.8" class="st1" width="171.7" height="157.5"/>
								<path class="st4" d="M36.8,59.5L36.8,59.5c-4.5,0-9,1.2-13,3.5c-3.9,2.3-7.2,5.6-9.5,9.5c-2.3,4-3.5,8.4-3.5,13v103.9l0,0
									c0,4.6,1.2,9,3.5,13c2.3,3.9,5.6,7.2,9.5,9.5c4,2.3,8.4,3.5,13,3.5h118.1l0,0c4.6,0,9-1.2,13-3.5c3.9-2.3,7.2-5.6,9.5-9.5
									c2.3-4,3.5-8.4,3.5-13v-104v0l0,0c0-4.6-1.2-9-3.5-13c-2.3-3.9-5.6-7.2-9.5-9.5c-4-2.3-8.4-3.5-13-3.5H36.8z"/>
								<path class="st5" d="M36.8,59.5L36.8,59.5c-4.5,0-9,1.2-13,3.5c-3.9,2.3-7.2,5.6-9.5,9.5c-2.3,4-3.5,8.4-3.5,13v103.9l0,0
									c0,4.6,1.2,9,3.5,13c2.3,3.9,5.6,7.2,9.5,9.5c4,2.3,8.4,3.5,13,3.5h118.1l0,0c4.6,0,9-1.2,13-3.5c3.9-2.3,7.2-5.6,9.5-9.5
									c2.3-4,3.5-8.4,3.5-13v-104v0l0,0c0-4.6-1.2-9-3.5-13c-2.3-3.9-5.6-7.2-9.5-9.5c-4-2.3-8.4-3.5-13-3.5H36.8z"/>
							</g>
						</g>
						<g>
							<g id="id5">
								<rect x="248.7" y="27.5" class="st1" width="253.9" height="221.3"/>
								<path class="st6" d="M286.1,28.3L286.1,28.3c-6.4,0-12.7,1.7-18.3,4.9c-5.6,3.2-10.2,7.9-13.4,13.4
									c-3.2,5.6-4.9,11.9-4.9,18.3v146.5l0,0c0,6.4,1.7,12.8,4.9,18.3c3.2,5.6,7.9,10.2,13.4,13.4c5.6,3.2,11.9,4.9,18.3,4.9
									h179.1l0,0c6.4,0,12.8-1.7,18.3-4.9c5.6-3.2,10.2-7.9,13.4-13.4s4.9-11.9,4.9-18.3V64.9v0l0,0c0-6.4-1.7-12.8-4.9-18.3
									s-7.9-10.2-13.4-13.4c-5.6-3.2-11.9-4.9-18.3-4.9H286.1z"/>
								<path class="st7" d="M286.1,28.3L286.1,28.3c-6.4,0-12.7,1.7-18.3,4.9c-5.6,3.2-10.2,7.9-13.4,13.4
									c-3.2,5.6-4.9,11.9-4.9,18.3v146.5l0,0c0,6.4,1.7,12.8,4.9,18.3c3.2,5.6,7.9,10.2,13.4,13.4c5.6,3.2,11.9,4.9,18.3,4.9
									h179.1l0,0c6.4,0,12.8-1.7,18.3-4.9c5.6-3.2,10.2-7.9,13.4-13.4s4.9-11.9,4.9-18.3V64.9v0l0,0c0-6.4-1.7-12.8-4.9-18.3
									s-7.9-10.2-13.4-13.4c-5.6-3.2-11.9-4.9-18.3-4.9H286.1z"/>
							</g>
						</g>
						<g>
							<g id="id6">
								<rect x="24.8" y="74.3" class="st1" width="136.2" height="37"/>
								<path class="st8" d="M31.4,75.1L31.4,75.1c-1,0-2,0.3-2.9,0.8c-0.9,0.5-1.6,1.3-2.2,2.2c-0.5,0.9-0.8,1.9-0.8,3v23.6v0
									c0,1,0.3,2,0.8,2.9c0.5,0.9,1.3,1.6,2.2,2.2c0.9,0.5,1.9,0.8,3,0.8h122.8h0c1,0,2-0.3,2.9-0.8c0.9-0.5,1.6-1.3,2.2-2.2
									c0.5-0.9,0.8-1.9,0.8-2.9V81v0l0,0c0-1-0.3-2.1-0.8-3c-0.5-0.9-1.3-1.6-2.2-2.2c-0.9-0.5-1.9-0.8-2.9-0.8H31.4z"/>
								<path class="st9" d="M31.4,75.1L31.4,75.1c-1,0-2,0.3-2.9,0.8c-0.9,0.5-1.6,1.3-2.2,2.2c-0.5,0.9-0.8,1.9-0.8,3v23.6v0
									c0,1,0.3,2,0.8,2.9c0.5,0.9,1.3,1.6,2.2,2.2c0.9,0.5,1.9,0.8,3,0.8h122.8h0c1,0,2-0.3,2.9-0.8c0.9-0.5,1.6-1.3,2.2-2.2
									c0.5-0.9,0.8-1.9,0.8-2.9V81v0l0,0c0-1-0.3-2.1-0.8-3c-0.5-0.9-1.3-1.6-2.2-2.2c-0.9-0.5-1.9-0.8-2.9-0.8H31.4z"/>
								<text transform="matrix(1 0 0 1 40.5435 97.647)" class="st10 st11">config_CODE.sh</text>
							</g>
						</g>
						<g>
							<g id="id7">
								<rect x="18.4" y="301.7" class="st1" width="108.9" height="22.9"/>
								<text transform="matrix(1 0 0 1 25.52 317.9277)" class="st10 st11">Install &amp; Config</text>
							</g>
						</g>
						<g>
							<g id="id8">
								<rect x="258.6" y="119.6" class="st1" width="81" height="37"/>
								<path class="st8" d="M265.3,120.4L265.3,120.4c-1,0-2,0.3-2.9,0.8c-0.9,0.5-1.6,1.3-2.2,2.2c-0.5,0.9-0.8,1.9-0.8,3v23.6
									l0,0c0,1,0.3,2.1,0.8,3c0.5,0.9,1.3,1.6,2.2,2.2c0.9,0.5,1.9,0.8,3,0.8h67.5h0c1,0,2-0.3,2.9-0.8c0.9-0.5,1.6-1.3,2.2-2.2
									c0.5-0.9,0.8-1.9,0.8-3v-23.6v0l0,0c0-1-0.3-2.1-0.8-3c-0.5-0.9-1.3-1.6-2.2-2.2c-0.9-0.5-1.9-0.8-2.9-0.8H265.3z"/>
								<path class="st12" d="M265.3,120.4L265.3,120.4c-1,0-2,0.3-2.9,0.8c-0.9,0.5-1.6,1.3-2.2,2.2c-0.5,0.9-0.8,1.9-0.8,3v23.6
									l0,0c0,1,0.3,2.1,0.8,3c0.5,0.9,1.3,1.6,2.2,2.2c0.9,0.5,1.9,0.8,3,0.8h67.5h0c1,0,2-0.3,2.9-0.8c0.9-0.5,1.6-1.3,2.2-2.2
									c0.5-0.9,0.8-1.9,0.8-3v-23.6v0l0,0c0-1-0.3-2.1-0.8-3c-0.5-0.9-1.3-1.6-2.2-2.2c-0.9-0.5-1.9-0.8-2.9-0.8H265.3z"/>
								<text transform="matrix(1 0 0 1 274.77 143.0015)" class="st10 st11">settings</text>
							</g>
						</g>
						<g>
							<g id="id9">
								<rect x="24.8" y="123.9" class="st1" width="136.2" height="37"/>
								<path class="st8" d="M31.4,124.7L31.4,124.7c-1,0-2,0.3-2.9,0.8c-0.9,0.5-1.6,1.3-2.2,2.2c-0.5,0.9-0.8,1.9-0.8,3v23.6v0
									c0,1,0.3,2,0.8,2.9c0.5,0.9,1.3,1.6,2.2,2.2c0.9,0.5,1.9,0.8,3,0.8h122.8h0c1,0,2-0.3,2.9-0.8c0.9-0.5,1.6-1.3,2.2-2.2
									c0.5-0.9,0.8-1.9,0.8-2.9v-23.7v0l0,0c0-1-0.3-2.1-0.8-3c-0.5-0.9-1.3-1.6-2.2-2.2c-0.9-0.5-1.9-0.8-2.9-0.8H31.4z"/>
								<path class="st9" d="M31.4,124.7L31.4,124.7c-1,0-2,0.3-2.9,0.8c-0.9,0.5-1.6,1.3-2.2,2.2c-0.5,0.9-0.8,1.9-0.8,3v23.6v0
									c0,1,0.3,2,0.8,2.9c0.5,0.9,1.3,1.6,2.2,2.2c0.9,0.5,1.9,0.8,3,0.8h122.8h0c1,0,2-0.3,2.9-0.8c0.9-0.5,1.6-1.3,2.2-2.2
									c0.5-0.9,0.8-1.9,0.8-2.9v-23.7v0l0,0c0-1-0.3-2.1-0.8-3c-0.5-0.9-1.3-1.6-2.2-2.2c-0.9-0.5-1.9-0.8-2.9-0.8H31.4z"/>
								<text transform="matrix(1 0 0 1 37.709 147.2534)" class="st10 st11">settings_template</text>
							</g>
						</g>
						<g>
							<g id="id10">
								<rect x="159.4" y="258.5" class="st1" width="86.6" height="37"/>
								<path class="st13" d="M166.1,259.3L166.1,259.3c-1,0-2,0.3-2.9,0.8c-0.9,0.5-1.6,1.3-2.2,2.2c-0.5,0.9-0.8,1.9-0.8,3v23.6
									l0,0c0,1,0.3,2.1,0.8,3c0.5,0.9,1.3,1.6,2.2,2.2c0.9,0.5,1.9,0.8,3,0.8h73.2h0c1,0,2-0.3,2.9-0.8c0.9-0.5,1.6-1.3,2.2-2.2
									c0.5-0.9,0.8-1.9,0.8-3v-23.6v0l0,0c0-1-0.3-2.1-0.8-3c-0.5-0.9-1.3-1.6-2.2-2.2c-0.9-0.5-1.9-0.8-2.9-0.8H166.1z"/>
								<text transform="matrix(1 0 0 1 173.5449 281.8994)" class="st10 st11">~/.bashrc</text>
							</g>
						</g>
						<g>
							<g id="id11">
								<rect x="396.1" y="119.6" class="st1" width="88" height="37"/>
								<path class="st8" d="M402.8,120.4L402.8,120.4c-1,0-2,0.3-2.9,0.8c-0.9,0.5-1.6,1.3-2.2,2.2c-0.5,0.9-0.8,1.9-0.8,3v23.6
									l0,0c0,1,0.3,2.1,0.8,3c0.5,0.9,1.3,1.6,2.2,2.2c0.9,0.5,1.9,0.8,3,0.8h74.6h0c1,0,2-0.3,2.9-0.8c0.9-0.5,1.6-1.3,2.2-2.2
									c0.5-0.9,0.8-1.9,0.8-3l0-23.6l0,0l0,0c0-1-0.3-2.1-0.8-3c-0.5-0.9-1.3-1.6-2.2-2.2c-0.9-0.5-1.9-0.8-2.9-0.8H402.8z"/>
								<path class="st12" d="M402.8,120.4L402.8,120.4c-1,0-2,0.3-2.9,0.8c-0.9,0.5-1.6,1.3-2.2,2.2c-0.5,0.9-0.8,1.9-0.8,3v23.6
									l0,0c0,1,0.3,2.1,0.8,3c0.5,0.9,1.3,1.6,2.2,2.2c0.9,0.5,1.9,0.8,3,0.8h74.6h0c1,0,2-0.3,2.9-0.8c0.9-0.5,1.6-1.3,2.2-2.2
									c0.5-0.9,0.8-1.9,0.8-3l0-23.6l0,0l0,0c0-1-0.3-2.1-0.8-3c-0.5-0.9-1.3-1.6-2.2-2.2c-0.9-0.5-1.9-0.8-2.9-0.8H402.8z"/>
								<text transform="matrix(1 0 0 1 411.1729 143.0015)" class="st10 st11">run_exec</text>
							</g>
						</g>
						<g>
							<g id="id12">
								<rect x="396.1" y="48.8" class="st1" width="88" height="37"/>
								<path class="st8" d="M402.8,49.5L402.8,49.5c-1,0-2,0.3-2.9,0.8c-0.9,0.5-1.6,1.3-2.2,2.2c-0.5,0.9-0.8,1.9-0.8,3v23.6v0
									c0,1,0.3,2,0.8,2.9c0.5,0.9,1.3,1.6,2.2,2.2c0.9,0.5,1.9,0.8,3,0.8h74.6h0c1,0,2-0.3,2.9-0.8c0.9-0.5,1.6-1.3,2.2-2.2
									c0.5-0.9,0.8-1.9,0.8-2.9l0-23.7l0,0l0,0c0-1-0.3-2.1-0.8-3c-0.5-0.9-1.3-1.6-2.2-2.2c-0.9-0.5-1.9-0.8-2.9-0.8H402.8z"/>
								<path class="st12" d="M402.8,49.5L402.8,49.5c-1,0-2,0.3-2.9,0.8c-0.9,0.5-1.6,1.3-2.2,2.2c-0.5,0.9-0.8,1.9-0.8,3v23.6v0
									c0,1,0.3,2,0.8,2.9c0.5,0.9,1.3,1.6,2.2,2.2c0.9,0.5,1.9,0.8,3,0.8h74.6h0c1,0,2-0.3,2.9-0.8c0.9-0.5,1.6-1.3,2.2-2.2
									c0.5-0.9,0.8-1.9,0.8-2.9l0-23.7l0,0l0,0c0-1-0.3-2.1-0.8-3c-0.5-0.9-1.3-1.6-2.2-2.2c-0.9-0.5-1.9-0.8-2.9-0.8H402.8z"/>
								<text transform="matrix(1 0 0 1 413.1572 72.1353)" class="st10 st11">gen_sub</text>
							</g>
						</g>
						<g>
							<g id="id13">
								<rect x="396.1" y="190.5" class="st1" width="88" height="37"/>
								<path class="st8" d="M402.8,191.3L402.8,191.3c-1,0-2,0.3-2.9,0.8c-0.9,0.5-1.6,1.3-2.2,2.2c-0.5,0.9-0.8,1.9-0.8,3v23.6v0
									c0,1,0.3,2,0.8,2.9c0.5,0.9,1.3,1.6,2.2,2.2c0.9,0.5,1.9,0.8,3,0.8h74.6h0c1,0,2-0.3,2.9-0.8c0.9-0.5,1.6-1.3,2.2-2.2
									c0.5-0.9,0.8-1.9,0.8-2.9l0-23.7l0,0l0,0c0-1-0.3-2.1-0.8-3c-0.5-0.9-1.3-1.6-2.2-2.2c-0.9-0.5-1.9-0.8-2.9-0.8H402.8z"/>
								<path class="st12" d="M402.8,191.3L402.8,191.3c-1,0-2,0.3-2.9,0.8c-0.9,0.5-1.6,1.3-2.2,2.2c-0.5,0.9-0.8,1.9-0.8,3v23.6v0
									c0,1,0.3,2,0.8,2.9c0.5,0.9,1.3,1.6,2.2,2.2c0.9,0.5,1.9,0.8,3,0.8h74.6h0c1,0,2-0.3,2.9-0.8c0.9-0.5,1.6-1.3,2.2-2.2
									c0.5-0.9,0.8-1.9,0.8-2.9l0-23.7l0,0l0,0c0-1-0.3-2.1-0.8-3c-0.5-0.9-1.3-1.6-2.2-2.2c-0.9-0.5-1.9-0.8-2.9-0.8H402.8z"/>
								<text transform="matrix(1 0 0 1 409.1885 213.8677)" class="st10 st11">post_proc</text>
							</g>
						</g>
						<g>
							<g id="id14">
								<rect x="287.7" y="266.4" class="st1" width="171.8" height="22.9"/>
								<text transform="matrix(1 0 0 1 294.8105 282.665)" class="st10 st11">User Defined Commands</text>
							</g>
						</g>
						<g>
							<g id="id15">
								<rect x="606.6" y="294.7" class="st1" width="113.4" height="22.9"/>
								<text transform="matrix(1 0 0 1 613.708 311.0107)" class="st10 st11">Run PBS Jobs</text>
							</g>
						</g>
						<g>
							<g id="id16">
								<rect x="25.5" y="181.4" class="st1" width="147.4" height="22.9"/>
								<text transform="matrix(1 0 0 1 32.6064 197.625)" class="st10 st11">Installation Directory</text>
							</g>
						</g>
						<g>
							<g id="id17">
								<rect x="275" y="215.2" class="st1" width="112" height="22.9"/>
								<text transform="matrix(1 0 0 1 282.0547 231.4707)" class="st10 st11">Script Directory</text>
							</g>
						</g>
						<g>
							<g id="id18">
								<rect x="369.9" y="97.1" class="st1" width="22.9" height="77.2"/>
								<text transform="matrix(6.123234e-17 -1 1 6.123234e-17 384.3857 167.1812)" class="st10 st14">Feed Data</text>
							</g>
						</g>
						<g>
							<g id="id19">
								<rect x="69.3" y="239.4" class="st1" width="55.4" height="55.4"/>
								<text transform="matrix(0.7083 0.7059 -0.7059 0.7083 80.2564 254.5724)" class="st10 st14">Config</text>
							</g>
						</g>
						<g>
							<g id="id20">
								<rect x="584.6" y="145.2" class="st1" width="143.3" height="122.1"/>
								<path class="st15" d="M605.4,145.9L605.4,145.9c-3.5,0-7,0.9-10,2.7c-3,1.8-5.6,4.3-7.3,7.3c-1.8,3.1-2.7,6.5-2.7,10.1v80.3
									v0c0,3.5,0.9,7,2.7,10c1.8,3,4.3,5.6,7.3,7.3c3.1,1.8,6.5,2.7,10,2.7H707h0c3.5,0,7-0.9,10-2.7c3-1.8,5.6-4.3,7.3-7.3
									c1.8-3.1,2.7-6.5,2.7-10V166v0l0,0c0-3.5-0.9-7-2.7-10.1c-1.8-3-4.3-5.6-7.3-7.3c-3.1-1.8-6.5-2.7-10-2.7H605.4z"/>
								<path class="st16" d="M605.4,145.9L605.4,145.9c-3.5,0-7,0.9-10,2.7c-3,1.8-5.6,4.3-7.3,7.3c-1.8,3.1-2.7,6.5-2.7,10.1v80.3
									v0c0,3.5,0.9,7,2.7,10c1.8,3,4.3,5.6,7.3,7.3c3.1,1.8,6.5,2.7,10,2.7H707h0c3.5,0,7-0.9,10-2.7c3-1.8,5.6-4.3,7.3-7.3
									c1.8-3.1,2.7-6.5,2.7-10V166v0l0,0c0-3.5-0.9-7-2.7-10.1c-1.8-3-4.3-5.6-7.3-7.3c-3.1-1.8-6.5-2.7-10-2.7H605.4z"/>
							</g>
						</g>
						<g>
							<g id="id21">
								<rect x="614.4" y="45.9" class="st1" width="86.6" height="29.9"/>
								<path class="st8" d="M619.8,46.7L619.8,46.7c-0.8,0-1.6,0.2-2.4,0.6c-0.7,0.4-1.3,1-1.7,1.7c-0.4,0.7-0.6,1.6-0.6,2.4v18.9
									l0,0c0,0.8,0.2,1.6,0.6,2.4c0.4,0.7,1,1.3,1.7,1.7c0.7,0.4,1.6,0.6,2.4,0.6h75.6l0,0c0.8,0,1.6-0.2,2.4-0.6
									c0.7-0.4,1.3-1,1.7-1.7c0.4-0.7,0.6-1.6,0.6-2.4V51.4v0l0,0c0-0.8-0.2-1.6-0.6-2.4c-0.4-0.7-1-1.3-1.7-1.7
									c-0.7-0.4-1.6-0.6-2.4-0.6H619.8z"/>
								<path class="st3" d="M619.8,46.7L619.8,46.7c-0.8,0-1.6,0.2-2.4,0.6c-0.7,0.4-1.3,1-1.7,1.7c-0.4,0.7-0.6,1.6-0.6,2.4v18.9
									l0,0c0,0.8,0.2,1.6,0.6,2.4c0.4,0.7,1,1.3,1.7,1.7c0.7,0.4,1.6,0.6,2.4,0.6h75.6l0,0c0.8,0,1.6-0.2,2.4-0.6
									c0.7-0.4,1.3-1,1.7-1.7c0.4-0.7,0.6-1.6,0.6-2.4V51.4v0l0,0c0-0.8-0.2-1.6-0.6-2.4c-0.4-0.7-1-1.3-1.7-1.7
									c-0.7-0.4-1.6-0.6-2.4-0.6H619.8z"/>
								<text transform="matrix(1 0 0 1 629.1006 65.7573)" class="st10 st11">Job.qsub</text>
							</g>
						</g>
						<g>
							<g id="id22">
								<rect x="614.4" y="81.4" class="st1" width="86.6" height="29.9"/>
								<path class="st8" d="M619.8,82.1L619.8,82.1c-0.8,0-1.6,0.2-2.4,0.6c-0.7,0.4-1.3,1-1.7,1.7c-0.4,0.7-0.6,1.6-0.6,2.4v18.9
									l0,0c0,0.8,0.2,1.6,0.6,2.4c0.4,0.7,1,1.3,1.7,1.7c0.7,0.4,1.6,0.6,2.4,0.6h75.6l0,0c0.8,0,1.6-0.2,2.4-0.6
									c0.7-0.4,1.3-1,1.7-1.7c0.4-0.7,0.6-1.6,0.6-2.4V86.8v0l0,0c0-0.8-0.2-1.6-0.6-2.4c-0.4-0.7-1-1.3-1.7-1.7
									c-0.7-0.4-1.6-0.6-2.4-0.6H619.8z"/>
								<path class="st3" d="M619.8,82.1L619.8,82.1c-0.8,0-1.6,0.2-2.4,0.6c-0.7,0.4-1.3,1-1.7,1.7c-0.4,0.7-0.6,1.6-0.6,2.4v18.9
									l0,0c0,0.8,0.2,1.6,0.6,2.4c0.4,0.7,1,1.3,1.7,1.7c0.7,0.4,1.6,0.6,2.4,0.6h75.6l0,0c0.8,0,1.6-0.2,2.4-0.6
									c0.7-0.4,1.3-1,1.7-1.7c0.4-0.7,0.6-1.6,0.6-2.4V86.8v0l0,0c0-0.8-0.2-1.6-0.6-2.4c-0.4-0.7-1-1.3-1.7-1.7
									c-0.7-0.4-1.6-0.6-2.4-0.6H619.8z"/>
								<text transform="matrix(1 0 0 1 638.8799 101.1904)" class="st10 st11">Job.in</text>
							</g>
						</g>
						<g>
							<g id="id23">
								<rect x="611.8" y="124.4" class="st1" width="83.6" height="29.4"/>
								<path class="st17" d="M617.1,125.2L617.1,125.2c-0.8,0-1.6,0.2-2.3,0.6s-1.3,1-1.7,1.7c-0.4,0.7-0.6,1.5-0.6,2.3v18.5l0,0
									c0,0.8,0.2,1.6,0.6,2.3s1,1.3,1.7,1.7s1.5,0.6,2.3,0.6h72.7l0,0c0.8,0,1.6-0.2,2.3-0.6c0.7-0.4,1.3-1,1.7-1.7
									s0.6-1.5,0.6-2.3v-18.6v0l0,0c0-0.8-0.2-1.6-0.6-2.3c-0.4-0.7-1-1.3-1.7-1.7c-0.7-0.4-1.5-0.6-2.3-0.6H617.1z"/>
								<path class="st18" d="M617.1,125.2L617.1,125.2c-0.8,0-1.6,0.2-2.3,0.6s-1.3,1-1.7,1.7c-0.4,0.7-0.6,1.5-0.6,2.3v18.5l0,0
									c0,0.8,0.2,1.6,0.6,2.3s1,1.3,1.7,1.7s1.5,0.6,2.3,0.6h72.7l0,0c0.8,0,1.6-0.2,2.3-0.6c0.7-0.4,1.3-1,1.7-1.7
									s0.6-1.5,0.6-2.3v-18.6v0l0,0c0-0.8-0.2-1.6-0.6-2.3c-0.4-0.7-1-1.3-1.7-1.7c-0.7-0.4-1.5-0.6-2.3-0.6H617.1z"/>
								<text transform="matrix(1 0 0 1 630.4043 143.937)" class="st10 st11">Job.out</text>
							</g>
						</g>
						<g>
							<g id="id24">
								<rect x="614.4" y="165" class="st1" width="86.6" height="29.9"/>
								<path class="st8" d="M619.8,165.8L619.8,165.8c-0.8,0-1.6,0.2-2.4,0.6c-0.7,0.4-1.3,1-1.7,1.7c-0.4,0.7-0.6,1.6-0.6,2.4
									v18.9l0,0c0,0.8,0.2,1.6,0.6,2.4c0.4,0.7,1,1.3,1.7,1.7c0.7,0.4,1.6,0.6,2.4,0.6h75.6l0,0c0.8,0,1.6-0.2,2.4-0.6
									c0.7-0.4,1.3-1,1.7-1.7c0.4-0.7,0.6-1.6,0.6-2.4v-18.9v0l0,0c0-0.8-0.2-1.6-0.6-2.4c-0.4-0.7-1-1.3-1.7-1.7
									c-0.7-0.4-1.6-0.6-2.4-0.6H619.8z"/>
								<path class="st16" d="M619.8,165.8L619.8,165.8c-0.8,0-1.6,0.2-2.4,0.6c-0.7,0.4-1.3,1-1.7,1.7c-0.4,0.7-0.6,1.6-0.6,2.4
									v18.9l0,0c0,0.8,0.2,1.6,0.6,2.4c0.4,0.7,1,1.3,1.7,1.7c0.7,0.4,1.6,0.6,2.4,0.6h75.6l0,0c0.8,0,1.6-0.2,2.4-0.6
									c0.7-0.4,1.3-1,1.7-1.7c0.4-0.7,0.6-1.6,0.6-2.4v-18.9v0l0,0c0-0.8-0.2-1.6-0.6-2.4c-0.4-0.7-1-1.3-1.7-1.7
									c-0.7-0.4-1.6-0.6-2.4-0.6H619.8z"/>
								<text transform="matrix(1 0 0 1 628.0234 184.8125)" class="st10 st11">Tmp.data</text>
							</g>
						</g>
						<g>
							<g id="id25">
								<rect x="614.4" y="200.4" class="st1" width="86.6" height="29.9"/>
								<path class="st8" d="M619.8,201.2L619.8,201.2c-0.8,0-1.6,0.2-2.4,0.6c-0.7,0.4-1.3,1-1.7,1.7c-0.4,0.7-0.6,1.6-0.6,2.4
									v18.9l0,0c0,0.8,0.2,1.6,0.6,2.4c0.4,0.7,1,1.3,1.7,1.7c0.7,0.4,1.6,0.6,2.4,0.6h75.6l0,0c0.8,0,1.6-0.2,2.4-0.6
									c0.7-0.4,1.3-1,1.7-1.7c0.4-0.7,0.6-1.6,0.6-2.4v-18.9v0l0,0c0-0.8-0.2-1.6-0.6-2.4c-0.4-0.7-1-1.3-1.7-1.7
									c-0.7-0.4-1.6-0.6-2.4-0.6H619.8z"/>
								<path class="st16" d="M619.8,201.2L619.8,201.2c-0.8,0-1.6,0.2-2.4,0.6c-0.7,0.4-1.3,1-1.7,1.7c-0.4,0.7-0.6,1.6-0.6,2.4
									v18.9l0,0c0,0.8,0.2,1.6,0.6,2.4c0.4,0.7,1,1.3,1.7,1.7c0.7,0.4,1.6,0.6,2.4,0.6h75.6l0,0c0.8,0,1.6-0.2,2.4-0.6
									c0.7-0.4,1.3-1,1.7-1.7c0.4-0.7,0.6-1.6,0.6-2.4v-18.9v0l0,0c0-0.8-0.2-1.6-0.6-2.4c-0.4-0.7-1-1.3-1.7-1.7
									c-0.7-0.4-1.6-0.6-2.4-0.6H619.8z"/>
								<text transform="matrix(1 0 0 1 632.332 220.2456)" class="st10 st11">Tmp.log</text>
							</g>
						</g>
						<g>
							<g id="id26">
								<rect x="599.5" y="238" class="st1" width="120.5" height="22.9"/>
								<text transform="matrix(1 0 0 1 606.6221 254.3179)" class="st10 st11">${EPHEMERAL}</text>
							</g>
						</g>
						<g>
							<g id="id27">
								<rect x="619.4" y="13.9" class="st1" width="78" height="22.9"/>
								<text transform="matrix(1 0 0 1 626.4639 30.2109)" class="st10 st11">${HOME}</text>
							</g>
						</g>
						<g>
							<g id="id28">
								<rect x="338" y="62.6" class="st1" width="58.9" height="76.3"/>
								<path class="st19" d="M338.7,138.1c43.6,0,17.5-63.4,51.7-70.3"/>
								<path class="st20" d="M396.9,67.3l-7.7-4.6l0.9,1l0.8,1.2l0.6,1.3l0.3,1.5l0.1,1.5l-0.3,1.5l-0.5,1.4l-0.7,1.2L396.9,67.3z"
									/>
							</g>
						</g>
						<g>
							<g id="id29">
								<rect x="338" y="132.7" class="st1" width="58.9" height="10.8"/>
								<path class="st19" d="M338.7,138.1h51.7"/>
								<path class="st20" d="M396.9,138.1l-7.2-5.4l0.8,1.1l0.7,1.3l0.4,1.4l0.2,1.5l-0.1,1.5l-0.4,1.4l-0.7,1.3l-0.9,1.1
									L396.9,138.1z"/>
							</g>
						</g>
						<g>
							<g id="id30">
								<rect x="338" y="137.4" class="st1" width="58.9" height="76.3"/>
								<path class="st19" d="M338.7,138.1c43.6,0,17.5,63.4,51.7,70.3"/>
								<path class="st20" d="M396.9,209l-6.6-6.1l0.7,1.2l0.5,1.4l0.3,1.4v1.5l-0.3,1.5l-0.6,1.4l-0.8,1.2l-1,1L396.9,209z"/>
							</g>
						</g>
						<g>
							<g id="id31">
								<rect x="95.1" y="214.7" class="st1" width="65.1" height="67.5"/>
								<path class="st19" d="M95.9,215.5c0,41,19.3,59.4,57.8,61.4"/>
								<path class="st20" d="M160.2,277l-7-5.6l0.8,1.1l0.6,1.3l0.4,1.4l0.1,1.5l-0.2,1.5l-0.5,1.4l-0.7,1.3l-0.9,1.1L160.2,277z"
									/>
							</g>
						</g>
						<g>
							<g id="id32">
								<rect x="482.5" y="55.5" class="st1" width="132.6" height="12.6"/>
								<path class="st19" d="M483.3,67.3c98.9,0,36.3-6.1,124.6-6.4"/>
								<path class="st20" d="M615.1,60.9l-7.2-5.4l0.8,1.1l0.6,1.3l0.5,1.4l0.2,1.5l-0.1,1.5l-0.4,1.4l-0.7,1.3l-0.8,1.1
									L615.1,60.9z"/>
							</g>
						</g>
						<g>
							<g id="id33">
								<rect x="483.3" y="70.7" class="st1" width="102.9" height="72.6"/>
								<path class="st3" d="M585.4,71.5c-76.5,0-28.5,62.5-95.2,66.4"/>
								<path class="st21" d="M483.3,138.1l7.3,5.1l-0.8-1l-0.7-1.3l-0.5-1.4l-0.2-1.5l0.1-1.6l0.4-1.4l0.6-1.4l0.8-1.1L483.3,138.1
									z"/>
							</g>
						</g>
						<g>
							<g id="id34">
								<rect x="482.5" y="137.4" class="st1" width="102.8" height="74"/>
								<path class="st3" d="M483.3,138.1c76.6,0,28.6,63.9,95.3,67.8"/>
								<path class="st21" d="M585.4,206.2l-7-5.6l0.8,1.1l0.6,1.3l0.4,1.4l0.1,1.5l-0.2,1.5l-0.5,1.4l-0.7,1.3l-0.9,1.1
									L585.4,206.2z"/>
							</g>
						</g>
						<g>
							<g id="id35">
								<rect x="483.3" y="203.6" class="st1" width="102.9" height="10.8"/>
								<path class="st16" d="M585.4,206.2c-76.5,0-28.7,2.6-94.8,2.8"/>
								<path class="st22" d="M483.3,209l7.2,5.4l-0.8-1.1L489,212l-0.5-1.4l-0.2-1.5l0.1-1.5l0.4-1.4l0.7-1.3l0.8-1.1L483.3,209z"
									/>
							</g>
						</g>
						<g>
							<g id="id36">
								<rect x="482.5" y="66.6" class="st1" width="102.9" height="143.2"/>
								<path class="st16" d="M483.3,209c76.6,0,28.4-129.7,95.8-137.1"/>
								<path class="st22" d="M585.4,71.5l-7.5-4.9l0.9,1l0.7,1.2l0.5,1.4l0.3,1.5l0,1.5l-0.4,1.5l-0.5,1.4l-0.8,1.2L585.4,71.5z"/>
							</g>
						</g>
						<g>
							<g id="id37">
								<rect x="180.1" y="132.7" class="st1" width="69.3" height="10.8"/>
								<path class="st19" d="M180.9,137.5c51.4,0,20.4,0.6,61.5,0.6"/>
								<path class="st20" d="M249.5,138.1l-7.2-5.4l0.8,1.1l0.7,1.3l0.4,1.4l0.2,1.5l-0.1,1.5l-0.4,1.4l-0.7,1.3l-0.9,1.1
									L249.5,138.1z"/>
							</g>
						</g>
						<g>
							<g id="id38">
								<rect x="187.1" y="117.6" class="st1" width="55.5" height="22.9"/>
								<text transform="matrix(1 0 0 1 194.1812 132.0312)" class="st10 st14">Config</text>
							</g>
						</g>
						<g>
							<g id="id39">
								<rect x="727.1" y="128.6" class="st1" width="70.9" height="24.4"/>
								<text transform="matrix(1 0 0 1 734.1807 144.8726)" class="st10 st11">Monitor</text>
							</g>
						</g>
						<g>
							<g id="id40">
								<rect x="500.3" y="45.1" class="st1" width="70.9" height="22.9"/>
								<text transform="matrix(1 0 0 1 507.4092 59.5776)" class="st10 st14">Generate</text>
							</g>
						</g>
						<g>
							<g id="id41">
								<rect x="513.4" y="84.3" class="st1" width="29.5" height="33.3"/>
								<text transform="matrix(0.2588 -0.9659 0.9659 0.2588 529.2362 108.5596)" class="st10 st14">In</text>
							</g>
						</g>
						<g>
							<g id="id42">
								<rect x="514.5" y="211.1" class="st1" width="47.8" height="34"/>
								<text transform="matrix(1 0 0 1 521.582 225.603)" class="st10 st14">Out</text>
							</g>
						</g>
					</g>
				</g>
			</g>
		</g>
	</g>
</g>
</svg>
